<?xml version="1.0" encoding="UTF-8" standalone="no"?>
<svg width="152px" height="152px" viewBox="0 0 152 152" version="1.1" xmlns="http://www.w3.org/2000/svg" xmlns:xlink="http://www.w3.org/1999/xlink">
    <!-- Generator: sketchtool 42 (36781) - http://www.bohemiancoding.com/sketch -->
    <title>179D4D3E-8FAE-4D78-BB2C-749FE935CE08</title>
    <desc>Created with sketchtool.</desc>
    <defs></defs>
    <g id="Supporter" stroke="none" stroke-width="1" fill="none" fill-rule="evenodd">
        <g id="Suporter_500" transform="translate(-436.000000, -197.000000)">
            <g id="Group-7" transform="translate(228.000000, 197.000000)">
                <g id="Group-4" transform="translate(208.000000, 0.000000)">
                    <g id="Group">
                        <g id="Group-8">
                            <path d="M76,152 C117.973641,152 152,117.973641 152,76 C152,34.026359 117.973641,0 76,0 C34.026359,0 0,34.026359 0,76 C0,117.973641 34.026359,152 76,152 Z" id="Oval-106-Copy-5" fill="#F0F0F0"></path>
                            <text id="!" font-family="OpenSans-Bold, Open Sans" font-size="70" font-weight="bold" fill="#0371CF">
                                <tspan x="65" y="103">!</tspan>
                            </text>
                            <path d="M75.5,130 C105.047234,130 129,106.047234 129,76.5 C129,46.9527659 105.047234,23 75.5,23 C45.9527659,23 22,46.9527659 22,76.5 C22,106.047234 45.9527659,130 75.5,130 Z" id="Oval-31" stroke="#0371CF" stroke-width="3"></path>
                        </g>
                    </g>
                </g>
            </g>
        </g>
    </g>
</svg>