<?xml version="1.0" encoding="UTF-8" standalone="no"?>
<svg width="153px" height="152px" viewBox="0 0 153 152" version="1.1" xmlns="http://www.w3.org/2000/svg" xmlns:xlink="http://www.w3.org/1999/xlink">
    <!-- Generator: sketchtool 3.8.2 (29753) - http://www.bohemiancoding.com/sketch -->
    <title>7175D345-BC00-4E74-93D4-D998B69DF3B0</title>
    <desc>Created with sketchtool.</desc>
    <defs></defs>
    <g id="Symbols" stroke="none" stroke-width="1" fill="none" fill-rule="evenodd">
        <g id="Footer-2" transform="translate(-104.000000, -106.000000)">
            <g id="Get-iformed" transform="translate(104.000000, 106.000000)">
                <path d="M76.0686178,152 C118.042259,152 152.068618,117.973641 152.068618,76 C152.068618,34.026359 118.042259,0 76.0686178,0 C34.0949768,0 0.0686178207,34.026359 0.0686178207,76 C0.0686178207,117.973641 34.0949768,152 76.0686178,152 Z" id="Oval-106-Copy-5" fill="#F0F0F0"></path>
                <path d="M75.5686178,113 C85.0609952,113 93.7296184,109.473089 100.335543,103.658211 C108.142569,96.7860612 113.068618,86.7183007 113.068618,75.5 C113.068618,54.7893219 96.2792959,38 75.5686178,38 C54.8579397,38 38.0686178,54.7893219 38.0686178,75.5" id="Oval-31-Copy" stroke="#0371CF" stroke-width="3" transform="translate(75.568618, 75.500000) rotate(-79.000000) translate(-75.568618, -75.500000) "></path>
                <path d="M79.3723288,75.9121094 L79.3723288,83.9199219 C79.3723288,86.3287881 79.5025358,87.8587207 79.7629538,88.5097656 C79.9419911,88.9654971 80.8697162,89.2584629 82.5461569,89.3886719 C82.6600897,89.5677092 82.7129864,89.8769509 82.7048483,90.3164062 C82.6967102,90.7558616 82.6438136,91.0488274 82.5461569,91.1953125 C80.316328,90.9674468 78.1434982,90.8535156 76.0276022,90.8535156 C73.9117062,90.8535156 71.7388764,90.9674468 69.5090475,91.1953125 C69.4113908,91.0488274 69.3584942,90.7558616 69.3503561,90.3164062 C69.342218,89.8769509 69.3951146,89.5677092 69.5090475,89.3886719 C71.42963,89.2421868 72.4712863,88.9492209 72.6340475,88.5097656 C72.8944655,87.8587207 73.0246725,86.3287881 73.0246725,83.9199219 L73.0246725,78.3046875 C73.0246725,76.1887915 72.8781896,74.8541694 72.5852194,74.3007812 C72.4224582,73.9915349 71.9626646,73.7514657 71.2058249,73.5805664 C70.4489851,73.4096671 69.8833983,73.3242188 69.5090475,73.3242188 C69.4276669,73.2753904 69.3869772,73.0109073 69.3869772,72.5307617 C69.3869772,72.0506161 69.4439428,71.8105469 69.5578756,71.8105469 C71.2505924,71.6803379 72.9880425,71.3548203 74.770278,70.8339844 C76.5525135,70.3131484 77.9888598,69.7760444 79.07936,69.2226562 C79.2421212,69.2714846 79.4211559,69.4016917 79.6164694,69.6132812 C79.8117829,69.8248708 79.9094381,69.9713538 79.9094381,70.0527344 C79.5513634,71.1269585 79.3723288,73.080064 79.3723288,75.9121094 Z M72.1945944,60.921875 C72.1945944,59.9453076 72.5363878,59.1152378 73.219985,58.4316406 C73.9035822,57.7480435 74.733652,57.40625 75.7102194,57.40625 C76.6867868,57.40625 77.5249945,57.7480435 78.2248678,58.4316406 C78.9247411,59.1152378 79.2746725,59.9453076 79.2746725,60.921875 C79.2746725,61.8984424 78.9247411,62.7285122 78.2248678,63.4121094 C77.5249945,64.0957065 76.6867868,64.4375 75.7102194,64.4375 C74.733652,64.4375 73.9035822,64.0957065 73.219985,63.4121094 C72.5363878,62.7285122 72.1945944,61.8984424 72.1945944,60.921875 L72.1945944,60.921875 Z" id="i" fill="#0371CF"></path>
                <g id="Group-7" transform="translate(84.068618, 92.000000)" stroke="#0371CF" stroke-width="3">
                    <path d="M12,24 C18.627417,24 24,18.627417 24,12 C24,5.372583 18.627417,0 12,0 C5.372583,0 0,5.372583 0,12 C0,18.627417 5.372583,24 12,24 Z" id="Oval-36"></path>
                    <polyline id="Path-1082" points="7 11.9039013 10.7613403 15.6652415 18.4265818 8"></polyline>
                </g>
            </g>
        </g>
    </g>
</svg>