<?xml version="1.0" encoding="UTF-8" standalone="no"?>
<svg width="153px" height="152px" viewBox="0 0 153 152" version="1.1" xmlns="http://www.w3.org/2000/svg" xmlns:xlink="http://www.w3.org/1999/xlink">
    <!-- Generator: sketchtool 3.8.2 (29753) - http://www.bohemiancoding.com/sketch -->
    <title>4C7EBF97-BB8D-49A3-8C18-96940CA7FC9F</title>
    <desc>Created with sketchtool.</desc>
    <defs>
        <path d="M53.5,107 C83.0472341,107 107,83.0472341 107,53.5 C107,23.9527659 83.0472341,0 53.5,0 C23.9527659,0 0,23.9527659 0,53.5 C0,83.0472341 23.9527659,107 53.5,107 Z" id="path-1"></path>
    </defs>
    <g id="Symbols" stroke="none" stroke-width="1" fill="none" fill-rule="evenodd">
        <g id="Footer-2" transform="translate(-436.000000, -105.000000)">
            <g id="Support-by" transform="translate(436.000000, 105.000000)">
                <circle id="Oval-106-Copy-3" fill="#F0F0F0" cx="76.0686178" cy="76" r="76"></circle>
                <g id="Group" transform="translate(21.068618, 23.000000)">
                    <g id="Group-13">
                        <mask id="mask-2" fill="white">
                            <use xlink:href="#path-1"></use>
                        </mask>
                        <g id="Mask"></g>
                        <g mask="url(#mask-2)">
                            <g transform="translate(-1.000000, 21.000000)">
                                <path d="M43,22.5 L0.47353765,22.5" id="Path-1084" stroke="#0371CF" stroke-width="3"></path>
                                <path d="M25.5264623,42.5 L0,42.5" id="Path-1084" stroke="#0371CF" stroke-width="3"></path>
                                <path d="M42.5264623,62.5 L0,62.5" id="Path-1084" stroke="#0371CF" stroke-width="3"></path>
                                <g id="Group-9" stroke="none" stroke-width="1" fill-rule="evenodd" transform="translate(63.759145, 30.759145) rotate(-315.000000) translate(-63.759145, -30.759145) translate(52.259145, -1.240855)">
                                    <path d="M1.12976295e-12,9.99833428 C1.12976295e-12,4.47640674 4.46798891,-1.0658141e-12 9.99463752,-1.0658141e-12 L11.9535042,-1.0658141e-12 C17.4733901,-1.0658141e-12 21.9481417,4.47733409 21.9481417,9.99833428 L21.9481417,51.8558749 L11.5407648,63.8299006 L1.12976295e-12,51.8558749 L1.12976295e-12,9.99833428 Z" id="Path-1087" stroke="#0371CF" stroke-width="3"></path>
                                    <path d="M4.47641924e-13,50.9160863 L22.7299093,50.9160863" id="Path-1088" stroke="#0371CF" stroke-width="3"></path>
                                </g>
                                <path d="M56.0212222,52.7070313 L56.0212222,72.7070313 L56.0212222,88.5423624 M3,6 L56.0212222,6 C56.0212222,6 56.0212222,16.9186198 56.0212222,22.3779297" id="Path-1083" stroke="#0371CF" stroke-width="3"></path>
                            </g>
                        </g>
                        <circle id="Oval-821" fill="#0371CF" mask="url(#mask-2)" cx="24.5" cy="98.5" r="7.5"></circle>
                    </g>
                    <path d="M72,28 L86.5086181,42.5086181" id="Path-1090" stroke="#0371CF" stroke-width="3"></path>
                    <path d="M54.0086181,107 C83.5558522,107 107.508618,83.0472341 107.508618,53.5 C107.508618,23.9527659 83.5558522,0 54.0086181,0 C24.461384,0 0.508618129,23.9527659 0.508618129,53.5 C0.508618129,83.0472341 24.461384,107 54.0086181,107 Z" id="Oval-31" stroke="#0371CF" stroke-width="3"></path>
                </g>
            </g>
        </g>
    </g>
</svg>