<?xml version="1.0" encoding="UTF-8" standalone="no"?>
<svg width="153px" height="152px" viewBox="0 0 153 152" version="1.1" xmlns="http://www.w3.org/2000/svg" xmlns:xlink="http://www.w3.org/1999/xlink">
    <!-- Generator: sketchtool 3.8.2 (29753) - http://www.bohemiancoding.com/sketch -->
    <title>2E7A847E-FA43-4BE9-8D52-4788A6A9A329</title>
    <desc>Created with sketchtool.</desc>
    <defs></defs>
    <g id="Symbols" stroke="none" stroke-width="1" fill="none" fill-rule="evenodd">
        <g id="Footer-2" transform="translate(-758.000000, -105.000000)">
            <g id="What-happens-next" transform="translate(758.000000, 105.000000)">
                <circle id="Oval-106-Copy-2" fill="#F0F0F0" cx="76.0686178" cy="76" r="76"></circle>
                <g id="Group-19" transform="translate(58.068618, 36.000000)"></g>
                <g id="Group-14" transform="translate(40.222464, 47.923077)">
                    <g id="Group-31" transform="translate(0.000000, 35.000000)" fill="#0371CF">
                        <path d="M1.70040486,3.44615385 C2.63951253,3.44615385 3.40080972,2.67470603 3.40080972,1.72307692 C3.40080972,0.771447816 2.63951253,0 1.70040486,0 C0.761297187,0 0,0.771447816 0,1.72307692 C0,2.67470603 0.761297187,3.44615385 1.70040486,3.44615385 Z" id="Oval-39"></path>
                        <path d="M7.22672065,3.44615385 C8.16582832,3.44615385 8.92712551,2.67470603 8.92712551,1.72307692 C8.92712551,0.771447816 8.16582832,0 7.22672065,0 C6.28761298,0 5.52631579,0.771447816 5.52631579,1.72307692 C5.52631579,2.67470603 6.28761298,3.44615385 7.22672065,3.44615385 Z" id="Oval-39"></path>
                        <path d="M12.7530364,3.44615385 C13.6921441,3.44615385 14.4534413,2.67470603 14.4534413,1.72307692 C14.4534413,0.771447816 13.6921441,0 12.7530364,0 C11.8139288,0 11.0526316,0.771447816 11.0526316,1.72307692 C11.0526316,2.67470603 11.8139288,3.44615385 12.7530364,3.44615385 Z" id="Oval-39-Copy"></path>
                    </g>
                    <g id="Group-30" transform="translate(28.000000, 0.000000)">
                        <path d="M45.4812897,35.9566353 C52.0866878,24.5157503 48.1667511,9.88634738 36.7258661,3.28094934 C25.2849811,-3.32444869 10.6555782,0.595488003 4.05018011,12.036373 C-2.55521793,23.477258 1.36471877,38.1066609 12.8056038,44.712059 C17.9022092,47.6545855 22.6299976,47.4896191 25.62003,47.9167665 C28.182914,54.7511264 35.3370864,53.5269115 35.3370862,53.5269113 C31.1729474,48.3439137 33.5110323,46.5055363 36.2987172,44.9267333 C39.0864021,43.3479302 41.4244904,41.9367012 45.4812897,35.9566353" id="Oval-37" stroke="#0371CF" stroke-width="3"></path>
                        <g id="Group-14" transform="translate(17.077079, 23.996504)" fill="#0371CF">
                            <path d="M1.84002018,3.68004035 C2.85623526,3.68004035 3.68004035,2.85623526 3.68004035,1.84002018 C3.68004035,0.823805094 2.85623526,0 1.84002018,0 C0.823805094,0 0,0.823805094 0,1.84002018 C0,2.85623526 0.823805094,3.68004035 1.84002018,3.68004035 Z" id="Oval-39"></path>
                            <path d="M13.8001513,3.68004035 C14.8163664,3.68004035 15.6401715,2.85623526 15.6401715,1.84002018 C15.6401715,0.823805094 14.8163664,0 13.8001513,0 C12.7839362,0 11.9601311,0.823805094 11.9601311,1.84002018 C11.9601311,2.85623526 12.7839362,3.68004035 13.8001513,3.68004035 Z" id="Oval-39-Copy"></path>
                        </g>
                        <path d="M24.8971649,27.6765445 C25.91338,27.6765445 26.7371851,26.8527394 26.7371851,25.8365243 C26.7371851,24.8203093 25.91338,23.9965042 24.8971649,23.9965042 C23.8809499,23.9965042 23.0571448,24.8203093 23.0571448,25.8365243 C23.0571448,26.8527394 23.8809499,27.6765445 24.8971649,27.6765445 Z" id="Oval-39" fill="#0371CF"></path>
                    </g>
                </g>
                <g id="Group-19" transform="translate(48.068618, 84.000000) scale(-1, 1) translate(-48.068618, -84.000000) translate(27.068618, 63.000000)" stroke="#0371CF" stroke-width="3">
                    <path d="M21,36.0769231 C29.3267547,36.0769231 36.0769231,29.3267547 36.0769231,21 C36.0769231,12.6732453 29.3267547,5.92307692 21,5.92307692 C12.6732453,5.92307692 5.92307692,12.6732453 5.92307692,21 C5.92307692,24.7093444 7.5030854,27.238043 8.21223237,29.0047829 C5.28935369,32.5575922 8.21223238,36.0769233 8.21223248,36.0769231 C9.72907165,32.1704867 11.469406,32.8673785 13.2097416,33.8914915 C14.9500772,34.9156045 16.4572515,35.7471137 21,36.0769231 Z" id="Oval-37" transform="translate(21.000000, 21.000000) rotate(-60.000000) translate(-21.000000, -21.000000) "></path>
                </g>
                <path d="M74.3754031,74.8000726 C65.0166569,67.5932878 53.2923056,63.3075829 40.5669742,63.3075829 C18.4879874,63.3075829 -0.57767784,76.2091465 -9.50241918,94.8846715" id="Oval-31-Copy" stroke="#0371CF" stroke-width="3" transform="translate(32.436492, 79.096127) rotate(-79.000000) translate(-32.436492, -79.096127) "></path>
                <path d="M162.404409,76.2166862 C153.045663,69.0099014 141.321312,64.7241965 128.59598,64.7241965 C106.516993,64.7241965 87.4513281,77.6257601 78.5265868,96.3012851" id="Oval-31-Copy" stroke="#0371CF" stroke-width="3" transform="translate(120.465498, 80.512741) rotate(104.000000) translate(-120.465498, -80.512741) "></path>
            </g>
        </g>
    </g>
</svg>