<svg xmlns="http://www.w3.org/2000/svg" xmlns:xlink="http://www.w3.org/1999/xlink" width="153" height="152" viewBox="0 0 153 152">
    <defs>
        <path id="a" d="M53.5 107c29.547 0 53.5-23.953 53.5-53.5S83.047 0 53.5 0 0 23.953 0 53.5 23.953 107 53.5 107z"/>
    </defs>
    <g fill="none" fill-rule="evenodd">
        <path fill="#FFF" d="M-441-178H583v657H-441z"/>
        <g>
            <circle cx="76.069" cy="76" r="76" fill="#F0F0F0"/>
            <g transform="translate(21.069 23)">
                <mask id="b" fill="#fff">
                    <use xlink:href="#a"/>
                </mask>
                <g stroke="#0371CE" stroke-width="3" mask="url(#b)">
                    <path d="M35.431 43.5H-.526M30.431 63.5H-1M41.526 83.5H-1M55.021 78.71v28.84M2 27h53.021v10"/>
                </g>
                <circle cx="24.5" cy="98.5" r="7.5" fill="#0371CE" mask="url(#b)"/>
            </g>
            <path fill="#0371CE" d="M109.473 114.527L91.25 96.187c1.68-2.03 3.008-4.326 3.984-6.884.977-2.559 1.465-5.264 1.465-8.115 0-3.243-.615-6.29-1.845-9.141-1.231-2.852-2.91-5.332-5.04-7.442-2.128-2.109-4.619-3.779-7.47-5.01-2.852-1.23-5.88-1.845-9.082-1.845-3.242 0-6.29.615-9.14 1.846-2.852 1.23-5.343 2.9-7.472 5.01-2.129 2.109-3.798 4.59-5.01 7.44-1.21 2.852-1.816 5.9-1.816 9.141 0 3.243.606 6.29 1.817 9.141 1.21 2.852 2.88 5.332 5.01 7.442 2.128 2.109 4.619 3.779 7.47 5.01 2.852 1.23 5.899 1.845 9.14 1.845 2.93 0 5.704-.508 8.321-1.523a23.737 23.737 0 0 0 7.031-4.22l18.164 18.282c.391.39.84.586 1.348.586.508 0 .957-.195 1.348-.586.351-.352.527-.791.527-1.318 0-.528-.176-.967-.527-1.319zm-36.211-13.593c-2.735 0-5.303-.518-7.705-1.553-2.403-1.035-4.493-2.451-6.27-4.248a20.364 20.364 0 0 1-4.219-6.27c-1.035-2.383-1.552-4.941-1.552-7.675 0-2.735.517-5.293 1.552-7.676a20.364 20.364 0 0 1 4.22-6.27c1.776-1.797 3.866-3.213 6.269-4.248 2.402-1.035 4.97-1.553 7.705-1.553 2.695 0 5.244.518 7.646 1.553 2.403 1.035 4.492 2.451 6.27 4.248a20.364 20.364 0 0 1 4.218 6.27c1.036 2.383 1.553 4.941 1.553 7.675 0 2.735-.517 5.293-1.553 7.676a20.364 20.364 0 0 1-4.218 6.27c-1.778 1.797-3.867 3.213-6.27 4.248-2.402 1.035-4.951 1.553-7.646 1.553z"/>
            <path stroke="#0371CE" stroke-width="3" d="M75.077 130c29.547 0 53.5-23.953 53.5-53.5S104.624 23 75.077 23s-53.5 23.953-53.5 53.5S45.53 130 75.077 130z"/>
        </g>
    </g>
</svg>
