<?xml version="1.0" encoding="utf-8"?>
<!-- Generator: Adobe Illustrator 16.0.3, SVG Export Plug-In . SVG Version: 6.00 Build 0)  -->
<!DOCTYPE svg PUBLIC "-//W3C//DTD SVG 1.1//EN" "http://www.w3.org/Graphics/SVG/1.1/DTD/svg11.dtd">
<svg version="1.1" xmlns="http://www.w3.org/2000/svg" xmlns:xlink="http://www.w3.org/1999/xlink" x="0px" y="0px" width="38px"
	 height="38px" viewBox="0 0 38 38" enable-background="new 0 0 38 38" xml:space="preserve">
<g id="Layer_2">
	<circle fill="#F0F0F0" cx="19" cy="19" r="19"/>
</g>
<g id="Layer_1">
	<title>Logo / Twitter</title>
	<desc>Created with Sketch.</desc>
	<g>
		<path d="M16.232,22.86c-0.455,0.455-1.192,0.455-1.646,0l0,0c-0.455-0.454-0.455-1.191,0-1.646l6.61-6.61
			c0.455-0.454,1.192-0.454,1.646,0l0,0c0.455,0.455,0.455,1.191,0,1.646L16.232,22.86z"/>
		<g>
			<path d="M19.746,14.938l4.292-4.292c0.228-0.228,0.597-0.228,0.825,0l1.936,1.937c0.228,0.228,0.228,0.597,0,0.825l-4.291,4.291
				c-0.141,0.141-0.334,0.193-0.516,0.161l-1.629,1.629c1.146,0.899,2.826,0.821,3.881-0.233l4.238-4.238
				c1.138-1.139,1.141-3.005,0.002-4.144l-1.913-1.912c-1.138-1.139-3.005-1.137-4.144,0.002l-4.237,4.238
				c-1.055,1.056-1.133,2.734-0.233,3.881l1.629-1.629C19.553,15.272,19.606,15.079,19.746,14.938z"/>
			<path d="M17.58,22.627l-4.292,4.291c-0.228,0.229-0.597,0.229-0.824,0l-1.937-1.936c-0.228-0.228-0.228-0.597,0-0.824
				l4.292-4.292c0.14-0.141,0.334-0.193,0.516-0.161l1.73-1.729c-1.146-0.9-2.825-0.822-3.88,0.233l-4.238,4.238
				c-1.138,1.138-1.141,3.004-0.002,4.143l1.913,1.912c1.139,1.139,3.005,1.137,4.143-0.002l4.238-4.238
				c1.055-1.055,1.134-2.733,0.233-3.881l-1.73,1.73C17.773,22.293,17.72,22.486,17.58,22.627z"/>
		</g>
	</g>
</g>
</svg>
