<?xml version="1.0" encoding="UTF-8"?>
<svg width="38px" height="38px" viewBox="0 0 38 38" version="1.1" xmlns="http://www.w3.org/2000/svg" xmlns:xlink="http://www.w3.org/1999/xlink">
    <!-- Generator: Sketch 51.3 (57544) - http://www.bohemiancoding.com/sketch -->
    <title>Logo / Twitter</title>
    <desc>Created with Sketch.</desc>
    <defs></defs>
    <g id="OCS-public" stroke="none" stroke-width="1" fill="none" fill-rule="evenodd">
        <g id="AA1.e-OCS-Thank-you" transform="translate(-15.000000, -327.000000)">
            <g id="Logo-/-Twitter" transform="translate(15.000000, 327.000000)">
                <g id="Group-2">
                    <circle id="Oval" fill="#1DA1F2" cx="19" cy="19" r="19"></circle>
                    <g id="Group-36" transform="translate(8.142857, 10.857143)" fill="#FFFFFF">
                        <path d="M17.9584607,2.57517807 C18.8205857,2.06637475 19.4829054,1.26068598 19.7947768,0.300592748 C18.9877179,0.771721781 18.0939375,1.11389653 17.1425464,1.29826008 C16.3807821,0.499184357 15.2953393,0 14.0940643,0 C11.7876,0 9.91749107,1.84072979 9.91749107,4.11120701 C9.91749107,4.43344244 9.95443929,4.74726127 10.0256893,5.04815461 C6.55459286,4.87671654 3.47710179,3.23988883 1.41726429,0.752483845 C1.05775714,1.3596812 0.851742857,2.06587376 0.851742857,2.81935958 C0.851742857,4.24577237 1.58907857,5.50415381 2.70973929,6.24150782 C2.02512857,6.22006553 1.38113036,6.03520099 0.818051786,5.72719362 C0.817644643,5.74442761 0.817644643,5.76156139 0.817644643,5.77899577 C0.817644643,7.77092372 2.25730179,9.43250023 4.16792143,9.81034531 C3.81747321,9.90423045 3.4485,9.95452963 3.06761786,9.95452963 C2.79849643,9.95452963 2.53680536,9.92877886 2.28173036,9.88078421 C2.81325536,11.514105 4.35561429,12.7028491 6.18327857,12.7359143 C4.75390179,13.8386889 2.95310893,14.4959851 0.996278571,14.4959851 C0.659164286,14.4959851 0.326732143,14.4764465 0,14.4383715 C1.84832679,15.6049719 4.04364107,16.2857143 6.40221964,16.2857143 C14.0842929,16.2857143 18.2852946,10.0208604 18.2852946,4.58794711 C18.2852946,4.40969561 18.2811214,4.23234589 18.2730804,4.05599814 C19.0891982,3.47635513 19.7972196,2.7523274 20.3571429,1.92780149 C19.6082036,2.2548464 18.8031804,2.47578207 17.9584607,2.57517807 Z" id="Fill-1"></path>
                    </g>
                </g>
            </g>
        </g>
    </g>
</svg>