<?xml version="1.0" encoding="UTF-8" standalone="no"?>
<svg width="153px" height="152px" viewBox="0 0 153 152" version="1.1" xmlns="http://www.w3.org/2000/svg" xmlns:xlink="http://www.w3.org/1999/xlink">
    <!-- Generator: sketchtool 41.2 (35397) - http://www.bohemiancoding.com/sketch -->
    <title>5A46EB0A-ED44-4E7C-93B6-B88F0E7C70BF</title>
    <desc>Created with sketchtool.</desc>
    <defs>
        <path d="M53.5,107 C83.0472341,107 107,83.0472341 107,53.5 C107,23.9527659 83.0472341,0 53.5,0 C23.9527659,0 0,23.9527659 0,53.5 C0,83.0472341 23.9527659,107 53.5,107 Z" id="path-1"></path>
    </defs>
    <g id="Supporter" stroke="none" stroke-width="1" fill="none" fill-rule="evenodd">
        <g id="Suporter_404" transform="translate(-441.000000, -197.000000)">
            <g id="Group-11" transform="translate(441.000000, 197.000000)">
                <circle id="Oval-106-Copy-3" fill="#F0F0F0" cx="76.0686178" cy="76" r="76"></circle>
                <g id="Group" transform="translate(21.068618, 23.000000)">
                    <g id="Group-13">
                        <mask id="mask-2" fill="white">
                            <use xlink:href="#path-1"></use>
                        </mask>
                        <g id="Mask"></g>
                        <g mask="url(#mask-2)" stroke="#0371CF" stroke-width="3">
                            <g transform="translate(-1.000000, 27.000000)">
                                <path d="M36.4313822,16.5 L0.47353765,16.5" id="Path-1084"></path>
                                <path d="M31.4313822,36.5 L0,36.5" id="Path-1084"></path>
                                <path d="M42.5264623,56.5 L0,56.5" id="Path-1084"></path>
                                <path d="M56.0213785,51.7099915 L56.0213785,67.8058383 L56.0213785,80.5499916 M3,0 L56.0212222,0 C56.0212222,0 56.0212222,6.66666667 56.0212222,10" id="Path-1083"></path>
                            </g>
                        </g>
                        <circle id="Oval-821" fill="#0371CF" mask="url(#mask-2)" cx="24.5" cy="98.5" r="7.5"></circle>
                    </g>
                    <path d="M88.4040384,91.5273438 L70.1813822,73.1875 C71.8610781,71.1562398 73.1891898,68.8613409 74.1657572,66.3027344 C75.1423246,63.7441278 75.6306009,61.0390768 75.6306009,58.1875 C75.6306009,54.9452963 75.0153727,51.8984518 73.7848978,49.046875 C72.5544229,46.1952982 70.8747522,43.7148543 68.7458353,41.6054688 C66.6169184,39.4960832 64.1267089,37.826178 61.2751322,36.5957031 C58.4235554,35.3652282 55.3962419,34.75 52.1931009,34.75 C48.9508972,34.75 45.9040527,35.3652282 43.0524759,36.5957031 C40.2008992,37.826178 37.7106897,39.4960832 35.5817728,41.6054688 C33.4528559,43.7148543 31.7829507,46.1952982 30.5720072,49.046875 C29.3610636,51.8984518 28.7556009,54.9452963 28.7556009,58.1875 C28.7556009,61.4297037 29.3610636,64.4765482 30.5720072,67.328125 C31.7829507,70.1797018 33.4528559,72.6601457 35.5817728,74.7695312 C37.7106897,76.8789168 40.2008992,78.548822 43.0524759,79.7792969 C45.9040527,81.0097718 48.9508972,81.625 52.1931009,81.625 C55.1228031,81.625 57.8962128,81.1171926 60.5134134,80.1015625 C63.130614,79.0859324 65.4743406,77.6796965 67.5446634,75.8828125 L85.7087259,94.1640625 C86.0993529,94.5546895 86.5485671,94.75 87.0563822,94.75 C87.5641972,94.75 88.0134115,94.5546895 88.4040384,94.1640625 C88.7556027,93.8124982 88.9313822,93.3730495 88.9313822,92.8457031 C88.9313822,92.3183567 88.7556027,91.878908 88.4040384,91.5273438 Z M52.1931009,77.9335938 C49.4587123,77.9335938 46.8903786,77.4160208 44.4880228,76.3808594 C42.085667,75.3456979 39.9958442,73.9296965 38.2184916,72.1328125 C36.4411389,70.3359285 35.034903,68.2461057 33.9997416,65.8632812 C32.9645801,63.4804568 32.4470072,60.9218887 32.4470072,58.1875 C32.4470072,55.4531113 32.9645801,52.8945432 33.9997416,50.5117188 C35.034903,48.1288943 36.4411389,46.0390715 38.2184916,44.2421875 C39.9958442,42.4453035 42.085667,41.0293021 44.4880228,39.9941406 C46.8903786,38.9589792 49.4587123,38.4414062 52.1931009,38.4414062 C54.8884269,38.4414062 57.4372295,38.9589792 59.8395853,39.9941406 C62.2419411,41.0293021 64.3317639,42.4453035 66.1091166,44.2421875 C67.8864692,46.0390715 69.2927051,48.1288943 70.3278666,50.5117188 C71.363028,52.8945432 71.8806009,55.4531113 71.8806009,58.1875 C71.8806009,60.9218887 71.363028,63.4804568 70.3278666,65.8632812 C69.2927051,68.2461057 67.8864692,70.3359285 66.1091166,72.1328125 C64.3317639,73.9296965 62.2419411,75.3456979 59.8395853,76.3808594 C57.4372295,77.4160208 54.8884269,77.9335938 52.1931009,77.9335938 Z" id="î‚" fill="#0371CF"></path>
                    <path d="M54.0086181,107 C83.5558522,107 107.508618,83.0472341 107.508618,53.5 C107.508618,23.9527659 83.5558522,0 54.0086181,0 C24.461384,0 0.508618129,23.9527659 0.508618129,53.5 C0.508618129,83.0472341 24.461384,107 54.0086181,107 Z" id="Oval-31" stroke="#0371CF" stroke-width="3"></path>
                </g>
            </g>
        </g>
    </g>
</svg>