<?xml version="1.0" encoding="UTF-8" standalone="no"?>
<svg width="27px" height="18px" viewBox="0 0 27 18" version="1.1" xmlns="http://www.w3.org/2000/svg" xmlns:xlink="http://www.w3.org/1999/xlink">
    <!-- Generator: sketchtool 3.8.2 (29753) - http://www.bohemiancoding.com/sketch -->
    <title>A85077C5-98BD-4BC5-A300-B3FF3BEED07D</title>
    <desc>Created with sketchtool.</desc>
    <defs></defs>
    <g id="Organiser" stroke="none" stroke-width="1" fill="none" fill-rule="evenodd">
        <g id="Congratulations" transform="translate(-540.000000, -1000.000000)" fill="#CC0000">
            <g id="G+" transform="translate(540.000000, 1000.000000)">
                <g id="Page-1">
                    <polygon id="Fill-1" points="22.0900766 5.20068188 22.0900766 7.74514702 19.6356776 7.74514702 19.6356776 10.2895003 22.0900766 10.2895003 22.0900766 12.8339655 24.5445835 12.8339655 24.5445835 10.2895003 26.9990904 10.2895003 26.9990904 7.74514702 24.5445835 7.74514702 24.5445835 5.20068188"></polygon>
                    <path d="M8.5906339,7.74512465 L8.5906339,10.7984157 L13.462754,10.7984157 C13.2664194,12.1088382 11.9900283,14.6404429 8.5906339,14.6404429 C5.65758823,14.6404429 3.26446289,12.121475 3.26446289,9.01730131 C3.26446289,5.91312764 5.65758823,3.39415971 8.5906339,3.39415971 C10.2596943,3.39415971 11.3764286,4.13201323 12.0146241,4.76821339 L14.3463679,2.44002722 C12.8490464,0.989705575 10.9100798,0.111841058 8.5906339,0.111841058 C3.84127686,0.111841058 2.1575237e-05,4.09387924 2.1575237e-05,9.01730131 C2.1575237e-05,13.9407234 3.84127686,17.9227616 8.5906339,17.9227616 C13.5486235,17.9227616 16.8376606,14.309762 16.8376606,9.22083168 C16.8376606,8.63562595 16.776279,8.19031938 16.7025996,7.74512465 L8.5906339,7.74512465 Z" id="Fill-2"></path>
                </g>
            </g>
        </g>
    </g>
</svg>