<?xml version="1.0" encoding="UTF-8" standalone="no"?>
<svg width="21px" height="17px" viewBox="0 0 21 17" version="1.1" xmlns="http://www.w3.org/2000/svg" xmlns:xlink="http://www.w3.org/1999/xlink">
    <!-- Generator: sketchtool 3.8.2 (29753) - http://www.bohemiancoding.com/sketch -->
    <title>F15C4985-59B5-4057-A6C5-AB5F17F8D377</title>
    <desc>Created with sketchtool.</desc>
    <defs></defs>
    <g id="Organiser" stroke="none" stroke-width="1" fill="none" fill-rule="evenodd">
        <g id="Congratulations" transform="translate(-542.000000, -908.000000)" fill="#FEFEFE">
            <path d="M560.52557,910.680472 C561.41492,910.150865 562.098155,909.312233 562.419875,908.312883 C561.58733,908.803276 560.665325,909.159442 559.68389,909.351344 C558.89807,908.519595 557.77835,908 556.53914,908 C554.15984,908 552.230675,909.915994 552.230675,912.279307 C552.230675,912.614718 552.26879,912.941368 552.34229,913.254564 C548.76158,913.076117 545.586905,911.372362 543.46202,908.783252 C543.09116,909.415276 542.87864,910.150344 542.87864,910.934638 C542.87864,912.419374 543.63926,913.729209 544.79531,914.496712 C544.08908,914.474393 543.424745,914.281969 542.843885,913.961368 C542.843465,913.979307 542.843465,913.997141 542.843465,914.015288 C542.843465,916.088663 544.328585,917.818178 546.29954,918.211472 C545.938025,918.309196 545.5574,918.361552 545.16449,918.361552 C544.88687,918.361552 544.616915,918.334748 544.353785,918.284791 C544.902095,919.984896 546.49316,921.222245 548.37854,921.256663 C546.904025,922.404528 545.046365,923.088699 543.02774,923.088699 C542.67998,923.088699 542.33705,923.068362 542,923.02873 C543.906695,924.243031 546.171335,924.951607 548.604395,924.951607 C556.52906,924.951607 560.862725,918.430595 560.862725,912.77554 C560.862725,912.59 560.85842,912.405399 560.850125,912.22184 C561.692015,911.618497 562.422395,910.864865 563,910.006626 C562.22741,910.347043 561.396965,910.577012 560.52557,910.680472 Z" id="Twitter"></path>
        </g>
    </g>
</svg>