<?xml version="1.0" encoding="utf-8"?>
<!-- Svg Vector Icons : http://www.onlinewebfonts.com/icon -->
<!DOCTYPE svg PUBLIC "-//W3C//DTD SVG 1.1//EN" "http://www.w3.org/Graphics/SVG/1.1/DTD/svg11.dtd">
<svg version="1.1" xmlns="http://www.w3.org/2000/svg" xmlns:xlink="http://www.w3.org/1999/xlink" x="0px" y="0px" viewBox="0 0 1000 1000" enable-background="new 0 0 1000 1000" xml:space="preserve">
<metadata> Svg Vector Icons : http://www.onlinewebfonts.com/icon </metadata>
<g><path d="M792.4,300.3c-13.7-13.7-35.9-13.7-49.4,0L417.8,625.5L257.1,464.9c-13.7-13.7-35.9-13.7-49.4,0s-13.7,35.9,0,49.4L393,699.7c6.6,6.6,15.4,10.3,24.7,10.3s18.2-3.7,24.7-10.3l349.9-350C806,336,806,314,792.4,300.3z M500,10C229.8,10,10,229.8,10,500s219.8,490,490,490s490-219.8,490-490S770.2,10,500,10z M500,920C268.5,920,80,731.5,80,500S268.5,80,500,80c231.7,0,420,188.5,420,420S731.7,920,500,920z"/></g>
</svg>