<?xml version="1.0" encoding="utf-8"?>
<!-- Generator: Adobe Illustrator 16.0.3, SVG Export Plug-In . SVG Version: 6.00 Build 0)  -->
<!DOCTYPE svg PUBLIC "-//W3C//DTD SVG 1.1//EN" "http://www.w3.org/Graphics/SVG/1.1/DTD/svg11.dtd">
<svg version="1.1" id="Layer_1" xmlns="http://www.w3.org/2000/svg" xmlns:xlink="http://www.w3.org/1999/xlink" x="0px" y="0px"
	 width="40px" height="40px" viewBox="0 0 40 40" enable-background="new 0 0 40 40" xml:space="preserve">
<g>
	<path fill="#FFFFFF" d="M31.695,12.012c-0.547-0.548-1.436-0.548-1.975,0L16.712,25.02l-6.428-6.423
		c-0.548-0.548-1.436-0.548-1.976,0c-0.54,0.548-0.548,1.436,0,1.976l7.412,7.416c0.264,0.264,0.616,0.412,0.988,0.412
		s0.728-0.148,0.988-0.412l13.996-14C32.24,13.44,32.24,12.56,31.695,12.012z M20,0.4C9.192,0.4,0.4,9.192,0.4,20
		c0,10.809,8.792,19.6,19.6,19.6c10.809,0,19.6-8.791,19.6-19.6C39.6,9.192,30.809,0.4,20,0.4z M20,36.8
		c-9.26,0-16.8-7.54-16.8-16.8S10.74,3.2,20,3.2c9.268,0,16.8,7.54,16.8,16.8S29.268,36.8,20,36.8z"/>
</g>
</svg>
