<?xml version="1.0" encoding="utf-8"?>
<!-- Generator: Adobe Illustrator 16.0.3, SVG Export Plug-In . SVG Version: 6.00 Build 0)  -->
<!DOCTYPE svg PUBLIC "-//W3C//DTD SVG 1.1//EN" "http://www.w3.org/Graphics/SVG/1.1/DTD/svg11.dtd">
<svg version="1.1" id="Layer_1" xmlns="http://www.w3.org/2000/svg" xmlns:xlink="http://www.w3.org/1999/xlink" x="0px" y="0px"
	 width="40px" height="43px" viewBox="0 230.5 40 43" enable-background="new 0 230.5 40 43" xml:space="preserve">
<path d="M20,234.5c-9.665,0-17.5,7.835-17.5,17.5c0,9.666,7.835,17.5,17.5,17.5s17.5-7.835,17.5-17.5
	C37.5,242.335,29.665,234.5,20,234.5L20,234.5L20,234.5z M20,267.166c-8.363,0-15.167-6.803-15.167-15.167
	c0-8.363,6.804-15.167,15.167-15.167c8.363,0,15.166,6.804,15.166,15.167C35.166,260.363,28.363,267.166,20,267.166L20,267.166
	L20,267.166z M21.752,251.963l5.404-5.347c0.492-0.485,0.496-1.276,0.011-1.767s-1.278-0.495-1.768-0.01l-5.413,5.353l-5.33-5.346
	c-0.489-0.489-1.279-0.491-1.768-0.002c-0.489,0.487-0.49,1.279-0.002,1.768l5.322,5.338l-5.366,5.309
	c-0.491,0.486-0.495,1.275-0.01,1.768c0.245,0.247,0.566,0.371,0.889,0.371c0.317,0,0.635-0.121,0.878-0.361l5.374-5.314
	l5.418,5.435c0.243,0.245,0.563,0.367,0.885,0.367c0.319,0,0.639-0.122,0.882-0.364c0.489-0.488,0.49-1.278,0.003-1.768
	L21.752,251.963L21.752,251.963z"/>
</svg>
