<?xml version="1.0" encoding="utf-8"?>
<!-- Generator: Adobe Illustrator 16.0.3, SVG Export Plug-In . SVG Version: 6.00 Build 0)  -->
<!DOCTYPE svg PUBLIC "-//W3C//DTD SVG 1.1//EN" "http://www.w3.org/Graphics/SVG/1.1/DTD/svg11.dtd">
<svg version="1.1" id="Layer_1" xmlns="http://www.w3.org/2000/svg" xmlns:xlink="http://www.w3.org/1999/xlink" x="0px" y="0px"
	 width="40px" height="40px" viewBox="0 0 40 40" enable-background="new 0 0 40 40" xml:space="preserve">
<g id="Layer_1_1_">
	<path fill="#FFFFFF" d="M27.25,25.609l-5.064-4.883l5.064-4.883c0.596-0.575,0.596-1.521,0-2.094c-0.598-0.575-1.576-0.575-2.173,0
		l-5.063,4.883l-5.063-4.883c-0.596-0.575-1.5-0.658-2.171,0c-0.683,0.658-0.577,1.538,0,2.094l5.063,4.883l-5.063,4.883
		c-0.644,0.622-0.616,1.512,0,2.094c0.614,0.593,1.575,0.575,2.171,0l5.063-4.883l5.063,4.883c0.597,0.575,1.575,0.575,2.173,0
		C27.855,27.128,27.855,26.185,27.25,25.609z"/>
	<path fill="#FFFFFF" d="M20.014,4.047c4.621,0,8.965,1.733,12.23,4.883c3.268,3.15,5.063,7.339,5.063,11.795
		c0,4.456-1.797,8.645-5.063,11.795c-3.266,3.149-7.609,4.884-12.23,4.884c-4.623,0-8.965-1.733-12.231-4.884
		c-3.267-3.15-5.064-7.34-5.064-11.795c0-4.456,1.797-8.646,5.064-11.795C11.048,5.78,15.392,4.047,20.014,4.047 M20.014,1.452
		c-11.041,0-19.986,8.627-19.986,19.274C0.027,31.375,8.973,40,20.014,40C31.055,40,40,31.375,40,20.726
		C40,10.079,31.055,1.452,20.014,1.452z"/>
</g>
<g id="Layer_2" display="none">
</g>
</svg>
