<svg xmlns="http://www.w3.org/2000/svg" width="90" height="90" viewBox="0 0 90 90">
    <g fill="none" fill-rule="evenodd">
        <path fill="#F0F0F0" fill-rule="nonzero" d="M45 90c24.853 0 45-20.147 45-45S69.853 0 45 0 0 20.147 0 45s20.147 45 45 45z"/>
        <path stroke="#0371CF" stroke-width="3" d="M66.844 49.246a22.168 22.168 0 0 0-2.637-15.485c-3.12-5.325-8.426-9.335-14.961-10.605-12.064-2.345-23.745 5.534-26.09 17.598-2.345 12.064 5.534 23.745 17.598 26.09"/>
        <path fill="#0371CF" fill-rule="nonzero" d="M47.476 44.46v4.688c0 1.41.077 2.305.231 2.686.106.267.656.439 1.65.515.067.105.098.286.093.543-.005.257-.036.429-.094.515-1.32-.134-2.608-.2-3.861-.2-1.254 0-2.541.066-3.862.2-.058-.086-.09-.258-.094-.515-.005-.257.026-.438.094-.543 1.138-.086 1.755-.257 1.851-.515.154-.38.232-1.276.232-2.686V45.86c0-1.238-.087-2.02-.26-2.344-.097-.18-.37-.321-.818-.421-.448-.1-.783-.15-1.005-.15-.048-.029-.072-.184-.072-.465 0-.28.033-.421.1-.421a15.307 15.307 0 0 0 3.089-.572c1.055-.305 1.906-.62 2.552-.943.097.028.203.105.319.228.115.124.173.21.173.258-.212.629-.318 1.772-.318 3.43zm-4.252-8.776c0-.571.202-1.057.607-1.457.405-.4.897-.6 1.475-.6.579 0 1.076.2 1.49.6.415.4.622.886.622 1.457a1.95 1.95 0 0 1-.622 1.458c-.414.4-.911.6-1.49.6-.578 0-1.07-.2-1.475-.6a1.973 1.973 0 0 1-.607-1.458z"/>
        <g stroke="#0371CF" stroke-width="3">
            <path d="M57.363 68.242a6.923 6.923 0 1 0 0-13.846 6.923 6.923 0 0 0 0 13.846z"/>
            <path d="M54.478 61.263l2.17 2.17 4.422-4.422"/>
        </g>
    </g>
</svg>
