<?xml version="1.0" encoding="utf-8"?>
<!-- Generator: Adobe Illustrator 16.0.3, SVG Export Plug-In . SVG Version: 6.00 Build 0)  -->
<!DOCTYPE svg PUBLIC "-//W3C//DTD SVG 1.1//EN" "http://www.w3.org/Graphics/SVG/1.1/DTD/svg11.dtd">
<svg version="1.1" id="Layer_1" xmlns="http://www.w3.org/2000/svg" xmlns:xlink="http://www.w3.org/1999/xlink" x="0px" y="0px"
	 width="40px" height="40px" viewBox="0 0 40 40" enable-background="new 0 0 40 40" xml:space="preserve">
<path fill="#FFFFFF" d="M36.428,22.397C37.112,21.237,37.5,20,37.5,18.504c0-3.438-2.908-6.686-6.705-6.686h-2.85
	c0.385-1,0.691-2.198,0.691-3.636C28.637,2.495,25.692,0,21.193,0c-4.813,0-4.538,7.417-5.606,8.484
	c-1.777,1.777-3.876,5.191-5.372,6.516H2.5C1.119,15,0,16.119,0,17.5v18.75c0,1.381,1.119,2.5,2.5,2.5h5
	c1.164,0,2.141-0.795,2.42-1.871c3.477,0.078,5.864,3.12,13.89,3.12C24.375,39.999,25,40,25.547,40c6.025,0,8.749-3.08,8.823-7.447
	c1.04-1.439,1.586-3.369,1.354-5.234C36.494,25.877,36.793,24.167,36.428,22.397z M31.604,26.604c0.98,1.65,0.098,3.859-1.09,4.497
	c0.602,3.812-1.375,5.148-4.149,5.148h-2.955c-5.597,0-9.221-2.954-13.409-2.954V18.75h0.853c2.216,0,5.311-5.538,7.386-7.614
	c2.215-2.215,1.477-5.908,2.954-7.386c3.693,0,3.693,2.577,3.693,4.432c0,3.06-2.216,4.431-2.216,7.386h8.124
	c1.649,0,2.948,1.478,2.955,2.955c0.007,1.477-1.002,2.954-1.74,2.954C33.064,22.613,33.289,25.011,31.604,26.604z M6.875,33.75
	c0,1.035-0.839,1.875-1.875,1.875s-1.875-0.84-1.875-1.875S3.964,31.875,5,31.875S6.875,32.715,6.875,33.75z"/>
</svg>
