<svg xmlns="http://www.w3.org/2000/svg" width="90" height="90" viewBox="0 0 90 90">
    <g fill="none" fill-rule="evenodd">
        <ellipse cx="44.746" cy="45" fill="#F0F0F0" fill-rule="nonzero" rx="44.706" ry="45"/>
        <g fill="#0371CF" fill-rule="nonzero">
            <path d="M24.66 51.14c.553 0 1-.457 1-1.02a1.01 1.01 0 0 0-1-1.02c-.552 0-1 .456-1 1.02 0 .563.448 1.02 1 1.02zM27.911 51.14c.553 0 1-.457 1-1.02a1.01 1.01 0 0 0-1-1.02c-.552 0-1 .456-1 1.02 0 .563.448 1.02 1 1.02zM31.162 51.14c.552 0 1-.457 1-1.02a1.01 1.01 0 0 0-1-1.02c-.552 0-1 .456-1 1.02 0 .563.448 1.02 1 1.02z"/>
        </g>
        <path stroke="#0371CF" stroke-width="3" d="M66.885 49.666c3.885-6.775 1.58-15.437-5.15-19.348-6.73-3.91-15.336-1.59-19.222 5.184-3.885 6.775-1.58 15.437 5.15 19.348 2.999 1.742 5.78 1.644 7.538 1.897 1.508 4.047 5.716 3.322 5.716 3.322-2.45-3.069-1.074-4.157.566-5.092 1.64-.935 3.015-1.77 5.402-5.311"/>
        <g fill="#0371CF" fill-rule="nonzero">
            <path d="M51.259 44.763c.597 0 1.082-.488 1.082-1.09 0-.601-.485-1.089-1.082-1.089-.598 0-1.083.488-1.083 1.09 0 .601.485 1.089 1.083 1.089zM58.294 44.763c.598 0 1.082-.488 1.082-1.09 0-.601-.484-1.089-1.082-1.089-.598 0-1.082.488-1.082 1.09 0 .601.484 1.089 1.082 1.089z"/>
        </g>
        <path fill="#0371CF" fill-rule="nonzero" d="M54.776 44.763c.598 0 1.083-.488 1.083-1.09 0-.601-.485-1.089-1.083-1.089s-1.082.488-1.082 1.09c0 .601.484 1.089 1.082 1.089z"/>
        <g stroke="#0371CF" stroke-width="3">
            <path d="M20.545 54.2c-2.45-4.241-.974-9.679 3.296-12.144s9.717-1.025 12.166 3.217.973 9.68-3.297 12.144c-1.902 1.099-3.663 1.042-4.778 1.204-.962 2.54-3.626 2.094-3.626 2.094 1.557-1.93.687-2.61-.35-3.193-1.037-.583-1.906-1.105-3.411-3.322z"/>
        </g>
        <path stroke="#0371CF" stroke-width="3" d="M21.29 22.131a32.346 32.346 0 0 0-10.474 18.224C8.338 53.104 13.696 65.57 23.55 72.834M67.362 72.225a32.346 32.346 0 0 0 11.414-17.65c3.142-12.603-1.557-25.333-11.017-33.102"/>
    </g>
</svg>
